<svg width="147" height="26" viewBox="0 0 147 26" fill="none" xmlns="http://www.w3.org/2000/svg">
<path d="M133.817 7.37642L145.73 7.29833L146.999 10.0157L144.902 13.0662H141.479L142.746 15.5334L140.816 18.3352H133.749L133.473 18.7783L138.165 18.8341L138.441 19.4445L139.18 21.4224L137.226 24.5478H124.806L123.867 22.9396C121.052 25.2697 111.363 24.7087 111.363 24.7087L109.958 22.9396C103.167 26.489 98.3657 23.8832 98.3657 23.8832L97.5917 22.9763C96.9556 22.291 96.7653 22.0519 96.7653 22.0519L94.9443 24.6035H89.4798L88.2108 22.4966V20.278L85.3398 24.6035H79.9324L78.4541 22.5826L87.2718 9.73043L89.3133 6.67676H94.8031L105.751 6.89829L133.776 6.67676H145.479L146.023 7.95337" fill="black"/>
<path d="M77.0182 22.3906L80.1272 18.2069L83.1965 17.7129L89.6428 12.0996L91.5463 5.12843L89.765 1.858L89.0892 1.73528L84.2386 6.85608L80.6443 8.12313C80.6443 8.12313 80.6364 8.23151 78.855 8.04982C78.855 8.04982 76.2346 7.22743 70.7908 8.25541L67.9102 9.69459L65.5341 8.29526L19.6452 8.15182L18.557 9.29615L17.618 8.15182H8.77648L10.0661 4.44948L7.73275 1.24121H6.93489L0 8.58214L1.59572 12.4694L4.58889 15.4768L0.552 21.6622L2.33331 25.6722H8.16579L8.96365 23.6975H9.33165L10.2532 25.6722H13.8143L14.49 23.8218H14.858L15.7796 25.6722H20.3843L21.0601 23.9445L21.4455 23.9398L22.0213 25.6228L24.8067 25.6021H26.7228L27.784 23.7581L28.6263 23.6959L29.4241 25.4236H34.1082L34.9885 23.6337H35.688L36.424 25.2371L41.0907 25.1749L41.9504 23.4473L42.6102 23.4632L43.0353 24.0274C43.4842 24.6665 44.1584 25.1797 44.9626 25.1877C45.2878 25.1909 52.6446 25.253 55.9978 25.2817C56.3991 25.2849 57.1589 25.2387 58.0012 24.837C58.6182 24.5422 59.1702 24.1087 59.6096 23.5588L60.417 22.5468L61.3513 22.5165L62.1475 23.8585C62.6567 24.7175 63.5719 25.253 64.5665 25.2753L70.5195 25.4092C71.4348 25.4299 73.3398 24.8657 74.7579 24.2091C75.5573 23.8393 76.2616 23.2895 76.8295 22.6153L77.0166 22.3922L77.0182 22.3906Z" fill="black"/>
<path d="M7.21362 1.63184L0.643555 9.15764L5.18803 13.6616H6.29362L1.01314 21.8058H5.86376L11.4504 13.5995L7.82748 21.8058H11.4504L18.8802 13.6616L13.4157 21.8058H18.4503L27.2315 8.97276L19.7399 8.85004L14.6434 14.5876L17.2844 8.85004L8.6872 8.78789L5.31017 6.8132L7.21362 1.63184Z" fill="white"/>
<path d="M28.7054 8.91113L20.0479 21.8064H25.6345L34.476 8.91113H28.7054Z" fill="white"/>
<path d="M36.0731 8.91113L27.2617 21.8064H32.1441L37.6688 13.6L34.1078 21.8064H37.6688L45.2223 13.5395L39.696 21.8064H44.6085L53.3881 8.91113H46.0202L40.7397 14.7109L43.1952 8.91113H36.0731Z" fill="white"/>
<path d="M79.5986 22.0519L89.7186 7.26172H93.8396V15.2115L99.3976 7.26172H103.666L93.6937 22.0519H89.3141V13.954L83.9036 22.0519H79.5986Z" fill="white"/>
<path d="M5.18848 13.6621H6.29406L5.8293 14.3793L5.18848 13.6621Z" fill="url(#paint0_linear_280_2044)"/>
<path d="M1.01367 21.806L1.44353 22.5152H6.50829L9.57284 17.855L11.4509 13.5996L5.86429 21.806H1.01367Z" fill="url(#paint1_linear_280_2044)"/>
<path d="M27.2617 21.806L27.7297 22.5152H32.7944L35.8034 17.8885L37.6688 13.5996L32.1441 21.806H27.2617Z" fill="url(#paint2_linear_280_2044)"/>
<path d="M17.2846 8.85059L17.7144 9.52953L16.2409 12.7904L14.6436 14.5882L17.2846 8.85059Z" fill="url(#paint3_linear_280_2044)"/>
<path d="M43.2004 8.90234L43.662 9.58129L42.2011 13.1067L40.7402 14.7101L43.2004 8.90234Z" fill="url(#paint4_linear_280_2044)"/>
<path d="M7.82715 21.8063L8.38073 22.5155H12.0036L15.5567 18.6156L18.8798 13.6621L11.45 21.8063H7.82715Z" fill="url(#paint5_linear_280_2044)"/>
<path d="M34.1074 21.806L34.6198 22.5152H38.2427L41.8021 18.6535L45.222 13.5391L37.6685 21.806H34.1074Z" fill="url(#paint6_linear_280_2044)"/>
<path d="M7.20923 1.63184L7.66923 2.46379L6.06082 7.25149L5.31055 6.8132L7.20923 1.63184Z" fill="url(#paint7_linear_280_2044)"/>
<path d="M13.417 21.8057L13.9389 22.515H18.8608L27.7848 9.58945L27.2328 8.97266L18.4516 21.8057H13.417Z" fill="url(#paint8_linear_280_2044)"/>
<path d="M39.6963 21.8064L40.1769 22.5459H45.0989L54.0229 9.62196L53.3884 8.91113L44.6088 21.8064H39.6963Z" fill="url(#paint9_linear_280_2044)"/>
<path d="M34.476 8.91113L25.6345 21.8064H20.0479L20.2937 22.5156H25.8597L34.9883 9.59008L34.476 8.91113Z" fill="url(#paint10_linear_280_2044)"/>
<path d="M66.0606 10.5352C66.0574 10.0857 65.8465 9.46099 65.1913 9.19323C65.1913 9.19323 64.8646 9.01313 64.3316 8.99242C63.8002 8.9717 54.9857 8.91113 54.9857 8.91113L46.2061 21.8048H54.9857C54.9857 21.8048 56.399 21.8096 57.8694 21.4C59.0226 21.0796 59.8918 20.3305 60.7516 19.4173C60.8087 19.3567 60.861 19.293 60.9102 19.2276L61.4352 18.6204C61.8365 18.1582 62.1807 17.6482 62.4583 17.0999C62.5662 16.8864 62.655 16.6951 62.6867 16.5915C62.766 16.3397 62.8009 16.0911 62.6804 15.7946C62.5598 15.4982 62.3029 15.2591 61.9983 15.1444C61.7477 15.0488 61.3749 14.9563 60.8594 14.9372C60.8594 14.9372 63.2927 14.5053 64.2571 13.6622C64.9138 13.0884 65.2865 12.5832 65.5752 12.0827C65.783 11.7241 66.0638 11.0181 66.0606 10.5352ZM54.1054 19.6054L55.9628 16.8274H56.9923C56.9923 16.8274 55.7677 19.5623 54.1069 19.6054H54.1054ZM57.963 14.0016L59.5905 11.7194H60.42C60.42 11.7194 59.6222 13.9092 57.9646 14.0016H57.963Z" fill="white"/>
<path d="M56.3544 16.1087L58.0802 13.8583L58.1785 13.7244L59.5506 11.8422H60.3881C60.4706 11.6685 60.4912 11.2031 59.871 11.0979C59.871 11.0979 59.2302 10.9704 58.6845 11.7306C58.1404 12.4908 53.3691 19.6071 53.3691 19.6071L54.1718 19.6039L55.9737 16.8785H56.9762C57.0729 16.7096 57.1903 16.4195 57.0523 16.1406L56.356 16.1103L56.3544 16.1087Z" fill="url(#paint11_linear_280_2044)"/>
<path d="M62.6867 16.5924C62.6534 16.696 62.5662 16.8872 62.4583 17.1008C62.1823 17.6475 61.8365 18.1575 61.4352 18.6213L60.9102 19.2285C60.861 19.2954 60.8087 19.3592 60.7516 19.4182C59.8918 20.3314 59.0226 21.0789 57.8694 21.4008C56.399 21.8104 54.9857 21.8056 54.9857 21.8056H46.2061L46.6153 22.5149H55.774C55.9327 22.5149 56.0913 22.5069 56.2499 22.4878C56.9463 22.4081 58.8545 22.1324 59.684 21.4247C59.684 21.4247 61.3004 20.2629 62.6217 18.022C62.6217 18.022 63.3371 16.7773 62.7232 15.915C62.793 16.1605 62.7581 16.3756 62.6899 16.5924H62.6867Z" fill="url(#paint12_linear_280_2044)"/>
<path d="M65.5342 9.39355C65.9069 9.70434 66.0306 10.1809 66.0322 10.5331C66.0354 11.016 65.7531 11.7221 65.5468 12.0807C65.2582 12.5811 64.8854 13.0863 64.2287 13.6601C63.2643 14.5032 60.8311 14.9351 60.8311 14.9351C61.345 14.9542 61.7177 15.0483 61.9699 15.1423C62.0699 15.1806 62.2253 15.2555 62.311 15.3176C65.1519 14.9925 66.3114 11.7539 66.3114 11.7539C66.811 10.3036 66.1686 9.6629 65.5357 9.39355H65.5342Z" fill="url(#paint13_linear_280_2044)"/>
<path d="M62.2164 20.6121C62.2164 20.6121 62.3735 22.3397 64.9114 22.7509C64.9114 22.7509 69.0847 23.2147 71.4799 22.284C71.4799 22.284 74.6935 21.3628 76.0862 19.2399L79.1555 14.8952L82.1027 14.4426L87.629 9.83658L89.4706 3.37861L89.2248 2.59766L87.2594 9.13692L81.7315 13.7318L78.8272 14.2768L75.7198 18.7601C75.7198 18.7601 73.2612 21.189 70.5599 21.8871C70.5599 21.8871 62.4179 23.4825 62.2148 20.6105L62.2164 20.6121Z" fill="url(#paint14_linear_280_2044)"/>
<path d="M84.6828 7.45132L80.3033 9.09609H79.2802C79.2802 9.09609 78.4237 8.61159 74.8119 8.6849C74.8119 8.6849 70.9749 8.42989 67.9991 11.2796C67.6835 11.5824 67.4027 11.9219 67.1537 12.282L62.8281 18.544C62.5664 18.9233 62.3744 19.3504 62.2793 19.8031C62.0762 20.7832 62.1064 21.9929 64.7331 22.2989C64.7331 22.2989 69.0111 22.7866 71.7949 21.5116C71.7949 21.5116 74.4978 20.447 75.7224 18.7607C76.9469 17.0745 78.8297 14.2775 78.8297 14.2775L81.5723 13.8663L87.262 9.13594L89.2273 2.59668L84.6828 7.44972V7.45132ZM74.8595 11.8533C74.3677 12.5944 69.579 19.4206 69.579 19.4206C69.579 19.4206 69.2951 19.8365 68.8414 19.9146C68.8414 19.9146 67.4503 20.337 68.0229 19.2405L73.048 11.839C73.2796 11.4979 73.5889 11.211 73.9617 11.0341C74.2313 10.905 74.5486 10.8237 74.8595 10.905C74.8595 10.905 75.3512 11.1106 74.8595 11.8517V11.8533Z" fill="white"/>
<path d="M68.4287 19.9887C68.3938 20.0317 67.5008 20.0333 68.0163 19.2507L73.0287 11.7967C73.0287 11.7967 73.7378 10.8595 74.5404 10.7687C74.5451 10.7766 75.2463 10.6794 75.0607 11.4859C75.0607 11.4859 74.4246 10.9854 72.951 13.1753C71.4774 15.3651 68.4256 19.9887 68.4256 19.9887H68.4287Z" fill="url(#paint15_linear_280_2044)"/>
<path d="M79.5986 22.0415L80.0221 22.6519H84.2161L89.3141 15.1835V13.9531L83.9099 22.0336L79.5986 22.0415Z" fill="url(#paint16_linear_280_2044)"/>
<path d="M93.8398 7.26172V15.2115L94.2285 14.6568V7.96457L93.8398 7.26172Z" fill="url(#paint17_linear_280_2044)"/>
<path d="M101.604 11.4932L103.998 7.96457L103.666 7.26172L93.694 22.0519H89.3145L89.6634 22.6528H94.0334L97.3787 17.7217C97.4802 17.371 97.6103 16.9933 97.7769 16.5805C97.7769 16.5805 99.1648 13.8918 101.603 11.4932H101.604Z" fill="url(#paint18_linear_280_2044)"/>
<path d="M116.066 8.94295L115.757 8.55566C115.961 9.22346 116.186 10.5559 115.658 11.9153C115.658 11.9153 113.837 16.0528 110.635 18.7415C110.635 18.7415 107.959 21.4636 103.578 21.9816C103.578 21.9816 100.734 22.5649 98.6605 21.8207C98.6605 21.8207 98.0086 21.7091 97.5137 21.1035C97.5137 21.1035 98.4019 23.1244 102.404 22.7913C102.404 22.7913 107.069 22.7642 111.015 19.269C111.471 18.8658 111.994 18.3956 112.416 17.9653L116.317 12.2245C116.77 10.8985 116.729 9.70796 116.066 8.94295Z" fill="url(#paint19_radial_280_2044)"/>
<path d="M114.23 7.5179C109.63 6.15044 104.772 9.07023 104.772 9.07023C101.198 11.0146 98.7808 14.752 97.9893 16.1067C97.7894 16.4494 97.6134 16.808 97.4896 17.1857C96.0906 21.4682 98.6571 21.9671 98.6571 21.9671C100.711 22.7114 103.595 22.085 103.595 22.085C107.938 21.567 110.59 18.8449 110.59 18.8449C113.766 16.1546 115.629 12.0267 115.629 12.0267C117.395 8.23828 114.23 7.5163 114.23 7.5163V7.5179ZM110.782 12.1239C110.782 12.1239 110.219 14.9529 106.415 17.8918C106.415 17.8918 105.318 18.7795 103.413 18.8353C103.413 18.8353 101.149 18.8353 102.42 16.145C102.42 16.145 103.754 13.5838 105.898 11.8785C106.637 11.2904 107.503 10.8776 108.43 10.7086C109.556 10.5046 110.968 10.5477 110.782 12.1239Z" fill="white"/>
<path d="M105.584 13.1213C105.584 13.1213 107.845 10.2892 110.716 11.3538L110.677 11.2598C110.328 10.541 109.295 10.5521 108.429 10.7083C107.501 10.8773 106.635 11.29 105.898 11.8781C103.753 13.5835 102.419 16.1447 102.419 16.1447C101.767 17.5249 102.046 18.1959 102.473 18.5226C102.473 18.5226 102.051 16.6898 105.585 13.1213H105.584Z" fill="url(#paint20_radial_280_2044)"/>
<path d="M127.205 7.35059H119.587L109.576 22.1042C109.576 22.1042 114.692 22.0675 116.421 22.1042C118.15 22.1408 120.088 21.4603 120.088 21.4603C123.363 20.4243 124.555 19.0728 126.983 16.2996C129.412 13.5265 130.075 10.8649 130.075 10.8649C131.068 7.5004 127.204 7.35218 127.204 7.35218L127.205 7.35059ZM121.841 16.9626C121.523 17.24 119.812 19.0935 116.72 18.668L116.606 18.6552L122.02 10.6226C122.02 10.6226 125.11 10.3134 125.104 11.9168C125.104 11.9168 124.739 14.1767 121.841 16.9642V16.9626Z" fill="white"/>
<path d="M129.898 8.59534V8.59853C130.232 9.11173 130.37 9.82733 130.074 10.8298C130.074 10.8298 129.411 13.4914 126.982 16.2646C124.554 19.0378 123.362 20.3893 120.087 21.4252C120.087 21.4252 118.15 22.1074 116.42 22.0691C114.691 22.0325 109.575 22.0691 109.575 22.0691L110.095 22.6827L117.414 22.6206C117.698 22.6174 117.982 22.5919 118.261 22.5425C119.446 22.3305 122.592 21.6308 124.224 19.9908C124.224 19.9908 133.113 11.9502 129.896 8.59375L129.898 8.59534Z" fill="url(#paint21_radial_280_2044)"/>
<path d="M122.024 10.6176L116.61 18.6502L116.725 18.663C116.956 18.6948 117.18 18.7124 117.396 18.7203L122.383 11.2679C122.383 11.2679 124.648 11.1053 125.07 11.6201C124.721 10.3482 122.024 10.6176 122.024 10.6176Z" fill="url(#paint22_linear_280_2044)"/>
<path d="M123.486 22.0514L133.497 7.29785H145.73L143.617 10.3675L135.998 10.4041L134.601 12.6227L141.309 12.7294L139.361 15.7512L132.282 15.8022L130.478 18.5754L138.17 18.7603L135.925 22.0514H123.486Z" fill="white"/>
<path d="M141.223 12.7246L141.293 12.7262L139.345 15.7464L132.266 15.7974L130.464 18.5706L131.157 18.5881L132.604 16.4445H139.67L141.689 13.4673L141.309 12.7262L141.223 12.7246Z" fill="url(#paint23_linear_280_2044)"/>
<path d="M145.714 7.29297L143.601 10.3626L135.984 10.3992L134.585 12.6178L135.237 12.6289L136.247 11.0367H143.92L146.023 7.95279L145.714 7.29297Z" fill="url(#paint24_linear_280_2044)"/>
<path d="M123.486 22.047L123.854 22.6208H136.238L138.428 19.4412L138.17 18.7559L135.925 22.047H123.486Z" fill="url(#paint25_linear_280_2044)"/>
<defs>
<linearGradient id="paint0_linear_280_2044" x1="5.74048" y1="14.4144" x2="5.74048" y2="13.3768" gradientUnits="userSpaceOnUse">
<stop offset="0.29" stop-color="#D4D4D4"/>
<stop offset="0.34" stop-color="#B5B5B5"/>
<stop offset="0.54" stop-color="#B8B8B8"/>
<stop offset="0.7" stop-color="#C2C2C2"/>
<stop offset="0.86" stop-color="#D3D3D3"/>
<stop offset="1" stop-color="#EBEBEB"/>
</linearGradient>
<linearGradient id="paint1_linear_280_2044" x1="10.6975" y1="20.8529" x2="3.22422" y2="15.9846" gradientUnits="userSpaceOnUse">
<stop offset="0.29" stop-color="#D4D4D4"/>
<stop offset="0.34" stop-color="#B5B5B5"/>
<stop offset="0.54" stop-color="#B8B8B8"/>
<stop offset="0.7" stop-color="#C2C2C2"/>
<stop offset="0.86" stop-color="#D3D3D3"/>
<stop offset="1" stop-color="#EBEBEB"/>
</linearGradient>
<linearGradient id="paint2_linear_280_2044" x1="36.9566" y1="20.8561" x2="29.4723" y2="15.9831" gradientUnits="userSpaceOnUse">
<stop offset="0.29" stop-color="#D4D4D4"/>
<stop offset="0.34" stop-color="#B5B5B5"/>
<stop offset="0.54" stop-color="#B8B8B8"/>
<stop offset="0.7" stop-color="#C2C2C2"/>
<stop offset="0.86" stop-color="#D3D3D3"/>
<stop offset="1" stop-color="#EBEBEB"/>
</linearGradient>
<linearGradient id="paint3_linear_280_2044" x1="16.9087" y1="12.1672" x2="15.4961" y2="11.503" gradientUnits="userSpaceOnUse">
<stop offset="0.13" stop-color="#EBEBEB"/>
<stop offset="0.29" stop-color="#D4D4D4"/>
<stop offset="0.39" stop-color="#B5B5B5"/>
</linearGradient>
<linearGradient id="paint4_linear_280_2044" x1="43.0291" y1="12.3082" x2="41.3226" y2="11.5065" gradientUnits="userSpaceOnUse">
<stop offset="0.13" stop-color="#EBEBEB"/>
<stop offset="0.29" stop-color="#D4D4D4"/>
<stop offset="0.39" stop-color="#B5B5B5"/>
</linearGradient>
<linearGradient id="paint5_linear_280_2044" x1="15.6392" y1="19.9575" x2="11.2803" y2="15.9412" gradientUnits="userSpaceOnUse">
<stop offset="0.13" stop-color="#EBEBEB"/>
<stop offset="0.16" stop-color="#D4D4D4"/>
<stop offset="0.26" stop-color="#B5B5B5"/>
</linearGradient>
<linearGradient id="paint6_linear_280_2044" x1="41.9274" y1="19.8934" x2="37.6051" y2="15.9104" gradientUnits="userSpaceOnUse">
<stop offset="0.13" stop-color="#EBEBEB"/>
<stop offset="0.16" stop-color="#D4D4D4"/>
<stop offset="0.26" stop-color="#B5B5B5"/>
</linearGradient>
<linearGradient id="paint7_linear_280_2044" x1="3.78779" y1="3.60652" x2="11.3914" y2="5.81515" gradientUnits="userSpaceOnUse">
<stop offset="0.34" stop-color="#B5B5B5"/>
<stop offset="0.37" stop-color="#B8B8B8"/>
<stop offset="0.39" stop-color="#C2C2C2"/>
<stop offset="0.41" stop-color="#D4D4D4"/>
<stop offset="1" stop-color="#EBEBEB"/>
</linearGradient>
<linearGradient id="paint8_linear_280_2044" x1="25.8576" y1="19.3402" x2="14.6572" y2="11.7731" gradientUnits="userSpaceOnUse">
<stop offset="0.05" stop-color="#EBEBEB"/>
<stop offset="0.25" stop-color="#D4D4D4"/>
<stop offset="0.33" stop-color="#B5B5B5"/>
</linearGradient>
<linearGradient id="paint9_linear_280_2044" x1="52.0941" y1="19.352" x2="40.9303" y2="11.8102" gradientUnits="userSpaceOnUse">
<stop offset="0.05" stop-color="#EBEBEB"/>
<stop offset="0.25" stop-color="#D4D4D4"/>
<stop offset="0.33" stop-color="#B5B5B5"/>
</linearGradient>
<linearGradient id="paint10_linear_280_2044" x1="32.314" y1="19.0459" x2="21.8252" y2="12.0222" gradientUnits="userSpaceOnUse">
<stop offset="0.05" stop-color="#EBEBEB"/>
<stop offset="0.24" stop-color="#D4D4D4"/>
<stop offset="0.29" stop-color="#B5B5B5"/>
</linearGradient>
<linearGradient id="paint11_linear_280_2044" x1="58.5989" y1="16.6267" x2="52.6236" y2="12.6574" gradientUnits="userSpaceOnUse">
<stop offset="0.15" stop-color="#D4D4D4"/>
<stop offset="0.26" stop-color="#B5B5B5"/>
<stop offset="0.48" stop-color="#B8B8B8"/>
<stop offset="0.67" stop-color="#C2C2C2"/>
<stop offset="0.84" stop-color="#D3D3D3"/>
<stop offset="1" stop-color="#EBEBEB"/>
</linearGradient>
<linearGradient id="paint12_linear_280_2044" x1="60.1091" y1="26.1789" x2="49.829" y2="13.148" gradientUnits="userSpaceOnUse">
<stop offset="0.24" stop-color="#D4D4D4"/>
<stop offset="0.29" stop-color="#B5B5B5"/>
<stop offset="0.51" stop-color="#B8B8B8"/>
<stop offset="0.69" stop-color="#C2C2C2"/>
<stop offset="0.85" stop-color="#D3D3D3"/>
<stop offset="1" stop-color="#EBEBEB"/>
</linearGradient>
<linearGradient id="paint13_linear_280_2044" x1="65.8466" y1="14.4315" x2="62.2774" y2="11.342" gradientUnits="userSpaceOnUse">
<stop offset="0.22" stop-color="#D4D4D4"/>
<stop offset="0.32" stop-color="#B5B5B5"/>
<stop offset="0.53" stop-color="#B8B8B8"/>
<stop offset="0.7" stop-color="#C2C2C2"/>
<stop offset="0.85" stop-color="#D3D3D3"/>
<stop offset="1" stop-color="#EBEBEB"/>
</linearGradient>
<linearGradient id="paint14_linear_280_2044" x1="86.0301" y1="23.296" x2="72.9201" y2="8.87867" gradientUnits="userSpaceOnUse">
<stop offset="0.39" stop-color="#D4D4D4"/>
<stop offset="0.5" stop-color="#B5B5B5"/>
<stop offset="0.74" stop-color="#B7B7B7"/>
<stop offset="0.83" stop-color="#BEBEBE"/>
<stop offset="0.9" stop-color="#CACACA"/>
<stop offset="0.96" stop-color="#DCDCDC"/>
<stop offset="1" stop-color="#EBEBEB"/>
</linearGradient>
<linearGradient id="paint15_linear_280_2044" x1="72.8511" y1="16.3373" x2="69.9333" y2="14.366" gradientUnits="userSpaceOnUse">
<stop offset="0.21" stop-color="#D4D4D4"/>
<stop offset="0.44" stop-color="#B5B5B5"/>
</linearGradient>
<linearGradient id="paint16_linear_280_2044" x1="83.8814" y1="17.7622" x2="86.9393" y2="19.8477" gradientUnits="userSpaceOnUse">
<stop offset="0.75" stop-color="#6A6A6A"/>
<stop offset="0.86" stop-color="#DADADA"/>
</linearGradient>
<linearGradient id="paint17_linear_280_2044" x1="91.0497" y1="11.2541" x2="95.0327" y2="11.2289" gradientUnits="userSpaceOnUse">
<stop offset="0.75" stop-color="#6A6A6A"/>
<stop offset="0.86" stop-color="#DADADA"/>
</linearGradient>
<linearGradient id="paint18_linear_280_2044" x1="90.2725" y1="10.5784" x2="102.44" y2="18.836" gradientUnits="userSpaceOnUse">
<stop offset="0.65" stop-color="#6A6A6A"/>
<stop offset="0.68" stop-color="#DADADA"/>
</linearGradient>
<radialGradient id="paint19_radial_280_2044" cx="0" cy="0" r="1" gradientTransform="matrix(6.08196 6.41717 -10.3464 9.8998 106.212 12.8414)" gradientUnits="userSpaceOnUse">
<stop offset="0.84" stop-color="#6A6A6A"/>
<stop offset="0.93" stop-color="#DADADA"/>
</radialGradient>
<radialGradient id="paint20_radial_280_2044" cx="0" cy="0" r="1" gradientTransform="matrix(5.17267 4.83983 -9.63369 10.3947 105.768 14.0185)" gradientUnits="userSpaceOnUse">
<stop offset="0.21" stop-color="#6A6A6A"/>
<stop offset="0.56" stop-color="#DADADA"/>
</radialGradient>
<radialGradient id="paint21_radial_280_2044" cx="0" cy="0" r="1" gradientTransform="matrix(8.63873 12.3825 -16.3905 11.5443 116.728 10.1321)" gradientUnits="userSpaceOnUse">
<stop offset="0.75" stop-color="#6A6A6A"/>
<stop offset="0.79" stop-color="#6A6A6A"/>
<stop offset="0.84" stop-color="#DADADA"/>
</radialGradient>
<linearGradient id="paint22_linear_280_2044" x1="115.402" y1="10.4773" x2="121.633" y2="15.6343" gradientUnits="userSpaceOnUse">
<stop offset="0.79" stop-color="#6A6A6A"/>
<stop offset="1" stop-color="#DADADA"/>
</linearGradient>
<linearGradient id="paint23_linear_280_2044" x1="128.28" y1="10.1092" x2="139.973" y2="18.5432" gradientUnits="userSpaceOnUse">
<stop offset="0.86" stop-color="#6A6A6A"/>
<stop offset="0.89" stop-color="#DADADA"/>
</linearGradient>
<linearGradient id="paint24_linear_280_2044" x1="131.969" y1="3.99864" x2="144.446" y2="12.998" gradientUnits="userSpaceOnUse">
<stop offset="0.86" stop-color="#6A6A6A"/>
<stop offset="0.89" stop-color="#DADADA"/>
</linearGradient>
<linearGradient id="paint25_linear_280_2044" x1="132.412" y1="21.6294" x2="135.549" y2="23.7226" gradientUnits="userSpaceOnUse">
<stop offset="0.82" stop-color="#6A6A6A"/>
<stop offset="0.97" stop-color="#DADADA"/>
</linearGradient>
</defs>
</svg>
