<svg width="32" height="36" viewBox="0 0 32 36" fill="none" xmlns="http://www.w3.org/2000/svg">
<g clip-path="url(#clip0_280_12442)">
<path d="M7.56119 19.9956C7.98844 20.0317 8.20981 19.827 8.21313 19.3936C8.2242 17.7321 8.2231 15.7522 8.20871 13.4559C8.2076 13.2085 8.21424 12.9776 8.22863 12.7609C8.23306 12.6864 8.27401 12.6175 8.3371 12.5748C10.024 11.4726 11.9732 11.2439 14.0032 11.6259C14.8378 11.7824 15.6735 12.1895 16.5036 12.5923C18.9299 13.7722 21.9882 13.7624 24.2861 12.2465C24.7034 11.9717 24.9989 11.8152 25 11.3763C25 8.28542 24.9978 5.06537 24.9945 1.71835C24.9934 1.2904 24.5207 1.00035 24.1278 1.28383C22.5682 2.4068 20.5382 2.7461 18.6521 2.41665C17.8186 2.26998 17.1976 1.95695 16.2867 1.53666C14.6308 0.770505 12.9196 0.527523 11.153 0.807718C10.0826 0.977367 9.19383 1.35716 8.27512 1.92302C8.26737 1.9285 8.25962 1.93069 8.25077 1.93069H8.24966C8.24966 1.93069 8.23859 1.9285 8.23417 1.92631C8.22752 1.92412 8.22199 1.91974 8.21867 1.91427C8.21646 1.91208 8.21535 1.90989 8.21424 1.9077C8.21203 1.90551 8.21092 1.90223 8.21092 1.89895C8.20871 1.89457 8.20871 1.89019 8.20871 1.88581C8.22752 1.17876 8.22752 0.707023 8.20871 0.471703C8.15558 -0.222217 7 -0.133561 7 0.626029C7.00111 8.33686 7.00111 14.557 7 19.2853C7 19.7274 7.18706 19.9649 7.56119 19.9956ZM10.915 10.4274C10.915 10.4558 10.894 10.4799 10.8663 10.4843C9.95536 10.643 9.09531 10.9298 8.28398 11.3435C8.27623 11.3479 8.26848 11.35 8.25962 11.35C8.25298 11.35 8.24634 11.35 8.24081 11.3457H8.23859C8.23859 11.3457 8.22863 11.3402 8.2242 11.3347C8.21978 11.3303 8.21646 11.3249 8.21424 11.3194C8.21092 11.3128 8.20981 11.3074 8.20981 11.2997V9.18182C8.20981 9.13585 8.23527 9.09317 8.27623 9.06909C9.0765 8.6083 9.94539 8.28542 10.8829 8.09935H10.8896C10.8896 8.09935 10.8951 8.10044 10.8984 8.10154C10.9017 8.10263 10.9051 8.10482 10.9084 8.10811C10.9095 8.1103 10.9117 8.11248 10.9128 8.11577C10.9139 8.11905 10.915 8.12234 10.915 8.12562V10.4274ZM15.5683 10.921C15.5683 10.9276 15.5672 10.9341 15.565 10.9407C15.5628 10.9473 15.5584 10.9516 15.5539 10.956C15.5495 10.9604 15.5451 10.9648 15.5395 10.9659C15.5384 10.9659 15.5373 10.9659 15.5373 10.9659C15.5318 10.9692 15.5252 10.9703 15.5196 10.9703C15.513 10.9703 15.5063 10.9692 15.4997 10.9659C14.7603 10.6758 14.0187 10.4952 13.2738 10.4252C13.2306 10.4219 13.1985 10.3858 13.1985 10.3431V7.98333C13.1996 7.97129 13.204 7.96035 13.2118 7.95159C13.214 7.94831 13.2162 7.94502 13.2195 7.94284C13.2229 7.93955 13.2273 7.93736 13.2317 7.93517C13.2339 7.93298 13.2361 7.93189 13.2383 7.93189C13.2472 7.92861 13.2561 7.92642 13.266 7.92751C14.053 7.99975 14.7935 8.21537 15.4875 8.57656C15.5373 8.60283 15.5683 8.65317 15.5683 8.70899V10.9199V10.921ZM19.8597 12.2322C19.8597 12.2322 19.8597 12.2344 19.8597 12.2355C19.8597 12.2388 19.8597 12.2421 19.8575 12.2454C19.8564 12.2497 19.853 12.253 19.8508 12.2552C19.8453 12.2607 19.8375 12.2651 19.8287 12.264C19.097 12.2519 18.3986 12.1282 17.7334 11.8918C17.6647 11.8678 17.6194 11.8043 17.6194 11.7331V9.57037C17.6194 9.57037 17.6205 9.56162 17.6216 9.55724V9.55396C17.6216 9.55396 17.6227 9.55067 17.6238 9.54958C17.626 9.5441 17.6282 9.53973 17.6315 9.53644C17.6337 9.53316 17.636 9.53097 17.6393 9.52878C17.6437 9.5255 17.6481 9.52221 17.6526 9.52112C17.6548 9.52003 17.657 9.51893 17.6603 9.51893C17.6703 9.51565 17.6802 9.51565 17.6902 9.51893C18.3864 9.73127 19.0882 9.83962 19.7955 9.8451C19.832 9.84619 19.8608 9.87574 19.8608 9.91077V12.2322H19.8597ZM23.8588 11.1432C23.8588 11.1563 23.8511 11.1673 23.84 11.1727L22.2096 11.9641C22.2096 11.9641 22.2007 11.9674 22.1952 11.9674C22.1896 11.9674 22.1852 11.9663 22.1808 11.9641C22.1775 11.963 22.1741 11.9608 22.1719 11.9575C22.1686 11.9553 22.1664 11.952 22.1653 11.9487C22.1631 11.9444 22.162 11.94 22.162 11.9345V9.6645C22.162 9.65137 22.1697 9.63933 22.1819 9.63385L23.8123 8.95745C23.8123 8.95745 23.8212 8.95526 23.8267 8.95526C23.83 8.95526 23.8334 8.95526 23.8356 8.95635C23.8389 8.95745 23.8411 8.95854 23.8433 8.96073C23.8522 8.9662 23.8588 8.97605 23.8588 8.98809V11.1432ZM22.1609 3.52429C22.1609 3.51116 22.1686 3.49803 22.1819 3.49255L23.809 2.81833C23.809 2.81833 23.8179 2.81615 23.8223 2.81615C23.8422 2.81615 23.8566 2.83147 23.8566 2.85008V5.00955C23.8566 5.02377 23.8489 5.03581 23.8356 5.04129L22.2085 5.71551C22.2085 5.71551 22.1996 5.71879 22.1952 5.71879H22.1941C22.1941 5.71879 22.1863 5.71769 22.1819 5.7166C22.1775 5.71551 22.1741 5.71222 22.1708 5.70894C22.1642 5.70237 22.1609 5.69362 22.1609 5.68376V3.52429ZM20.0656 6.98185C20.0656 6.96325 20.0799 6.94574 20.0999 6.94355L21.9594 6.71917H21.9638C21.9738 6.71917 21.9827 6.72246 21.9893 6.72902C21.9926 6.73121 21.9948 6.7334 21.9948 6.73668C21.997 6.73778 21.9982 6.73997 21.9993 6.74325C22.0015 6.74763 22.0026 6.75201 22.0026 6.75748V8.82392C22.0026 8.84362 21.9882 8.86004 21.9683 8.86222L20.1087 9.0866C20.1087 9.0866 20.1054 9.08769 20.1043 9.08769C20.0988 9.08769 20.0943 9.0866 20.0899 9.08441C20.0844 9.08222 20.0788 9.07894 20.0755 9.07347C20.0722 9.07018 20.07 9.0669 20.0689 9.06361C20.0667 9.05924 20.0656 9.05376 20.0656 9.04829V6.98185ZM17.6171 3.35355C17.6171 3.34698 17.6171 3.34151 17.6205 3.33604C17.6216 3.33057 17.6249 3.32509 17.6293 3.31962C17.6315 3.31524 17.636 3.31086 17.6415 3.30758C17.6426 3.30758 17.6426 3.30649 17.6426 3.30649C17.647 3.3032 17.6526 3.30101 17.6581 3.29992C17.6636 3.29773 17.6692 3.29664 17.6747 3.29664C17.6802 3.29664 17.6869 3.29664 17.6924 3.29883C18.3588 3.50459 19.0583 3.60748 19.7922 3.60748C19.8298 3.60748 19.8597 3.63812 19.8597 3.67424V5.91361C19.8597 5.94973 19.832 5.98038 19.7955 5.98147C19.1557 6.0165 18.4584 5.92018 17.7024 5.69252C17.6515 5.67829 17.6171 5.63123 17.6171 5.57869V3.35355ZM15.7609 5.68595C15.7609 5.68595 15.762 5.67501 15.7642 5.67063C15.7731 5.65421 15.7941 5.64765 15.8107 5.65531L17.3327 6.42584C17.3449 6.43241 17.3515 6.44445 17.3515 6.45649V8.64551C17.3515 8.65098 17.3515 8.65646 17.3482 8.66193C17.3449 8.6674 17.3404 8.67178 17.3349 8.67506C17.3327 8.67725 17.3305 8.67835 17.3271 8.67944C17.3194 8.68054 17.3094 8.68054 17.3017 8.67616L15.7797 7.90672C15.7676 7.90124 15.7609 7.8892 15.7609 7.87607V5.68595ZM13.1963 1.87268V1.8672C13.1963 1.8672 13.1963 1.86392 13.1974 1.86173C13.1985 1.85626 13.1996 1.85188 13.2029 1.8475C13.2051 1.84203 13.2085 1.83765 13.2129 1.83328C13.2151 1.83109 13.2173 1.8289 13.2195 1.8278C13.2206 1.8278 13.2206 1.82561 13.2217 1.82561C13.2251 1.82342 13.2284 1.82124 13.2328 1.82014C13.2395 1.81686 13.2461 1.81576 13.2527 1.81576H13.2583C14.0353 1.87815 14.7891 2.07297 15.5185 2.40133C15.5495 2.41556 15.5694 2.4473 15.5694 2.48123V4.81691C15.5694 4.82348 15.5683 4.83005 15.565 4.83552C15.565 4.83771 15.5639 4.8388 15.5628 4.84099C15.5606 4.84537 15.5584 4.84865 15.555 4.85084C15.5495 4.85631 15.5429 4.86069 15.5362 4.86179C15.5318 4.86398 15.5263 4.86507 15.5207 4.86507C15.513 4.86507 15.5052 4.86288 15.4975 4.8585C14.8621 4.50388 13.9866 4.24339 13.2682 4.20399C13.2273 4.2018 13.1963 4.16896 13.1963 4.12846V1.87268ZM11.143 7.21389V5.13213C11.143 5.11352 11.1574 5.0982 11.1762 5.09711L12.9804 4.96248H12.9827C12.9827 4.96248 12.9926 4.96248 12.997 4.96577C13.0048 4.96905 13.0114 4.97562 13.0148 4.98328C13.0159 4.98547 13.017 4.98875 13.017 4.99203C13.0181 4.99313 13.0181 4.99532 13.0181 4.99751V7.14603C13.0181 7.16573 13.0026 7.18106 12.9838 7.18106L11.1796 7.24892H11.1785C11.1685 7.24892 11.1596 7.24454 11.153 7.23906C11.1475 7.23359 11.1441 7.22593 11.143 7.21718V7.21389ZM8.21203 3.63265C8.21313 3.48818 8.23306 3.36778 8.27069 3.27256C8.28508 3.23753 8.30943 3.20689 8.33932 3.1839C9.06875 2.64321 9.9144 2.23058 10.8741 1.94601C10.8774 1.94601 10.8796 1.94492 10.8829 1.94492C10.8995 1.94492 10.9128 1.95805 10.9128 1.97447V4.28389C10.9128 4.31563 10.8907 4.34189 10.8608 4.34846C9.95536 4.5597 9.10528 4.92746 8.30943 5.45282C8.29947 5.45939 8.2884 5.46267 8.27733 5.46267H8.27512C8.26627 5.46267 8.25741 5.46048 8.24855 5.45611C8.23638 5.45063 8.22642 5.43969 8.22088 5.42655C8.21867 5.42327 8.21756 5.41999 8.21756 5.4167C8.21646 5.41233 8.21535 5.40795 8.21535 5.40357C8.20649 4.86507 8.20539 4.27403 8.21203 3.63265Z" fill="white"/>
</g>
<path d="M6.732 35L4.812 31.664H3.768V35H2.4V26.66H5.28C5.92 26.66 6.46 26.772 6.9 26.996C7.348 27.22 7.68 27.52 7.896 27.896C8.12 28.272 8.232 28.692 8.232 29.156C8.232 29.7 8.072 30.196 7.752 30.644C7.44 31.084 6.956 31.384 6.3 31.544L8.364 35H6.732ZM3.768 30.572H5.28C5.792 30.572 6.176 30.444 6.432 30.188C6.696 29.932 6.828 29.588 6.828 29.156C6.828 28.724 6.7 28.388 6.444 28.148C6.188 27.9 5.8 27.776 5.28 27.776H3.768V30.572ZM9.52603 31.664C9.52603 31 9.66203 30.412 9.93403 29.9C10.214 29.388 10.59 28.992 11.062 28.712C11.542 28.424 12.07 28.28 12.646 28.28C13.166 28.28 13.618 28.384 14.002 28.592C14.394 28.792 14.706 29.044 14.938 29.348V28.388H16.318V35H14.938V34.016C14.706 34.328 14.39 34.588 13.99 34.796C13.59 35.004 13.134 35.108 12.622 35.108C12.054 35.108 11.534 34.964 11.062 34.676C10.59 34.38 10.214 33.972 9.93403 33.452C9.66203 32.924 9.52603 32.328 9.52603 31.664ZM14.938 31.688C14.938 31.232 14.842 30.836 14.65 30.5C14.466 30.164 14.222 29.908 13.918 29.732C13.614 29.556 13.286 29.468 12.934 29.468C12.582 29.468 12.254 29.556 11.95 29.732C11.646 29.9 11.398 30.152 11.206 30.488C11.022 30.816 10.93 31.208 10.93 31.664C10.93 32.12 11.022 32.52 11.206 32.864C11.398 33.208 11.646 33.472 11.95 33.656C12.262 33.832 12.59 33.92 12.934 33.92C13.286 33.92 13.614 33.832 13.918 33.656C14.222 33.48 14.466 33.224 14.65 32.888C14.842 32.544 14.938 32.144 14.938 31.688ZM17.6588 31.688C17.6588 31.008 17.7948 30.412 18.0668 29.9C18.3468 29.38 18.7308 28.98 19.2188 28.7C19.7068 28.42 20.2668 28.28 20.8988 28.28C21.6988 28.28 22.3588 28.472 22.8788 28.856C23.4068 29.232 23.7628 29.772 23.9468 30.476H22.4708C22.3508 30.148 22.1588 29.892 21.8948 29.708C21.6308 29.524 21.2988 29.432 20.8988 29.432C20.3388 29.432 19.8908 29.632 19.5548 30.032C19.2268 30.424 19.0628 30.976 19.0628 31.688C19.0628 32.4 19.2268 32.956 19.5548 33.356C19.8908 33.756 20.3388 33.956 20.8988 33.956C21.6908 33.956 22.2148 33.608 22.4708 32.912H23.9468C23.7548 33.584 23.3948 34.12 22.8668 34.52C22.3388 34.912 21.6828 35.108 20.8988 35.108C20.2668 35.108 19.7068 34.968 19.2188 34.688C18.7308 34.4 18.3468 34 18.0668 33.488C17.7948 32.968 17.6588 32.368 17.6588 31.688ZM31.3702 31.532C31.3702 31.78 31.3542 32.004 31.3222 32.204H26.2702C26.3102 32.732 26.5062 33.156 26.8582 33.476C27.2102 33.796 27.6422 33.956 28.1542 33.956C28.8902 33.956 29.4102 33.648 29.7142 33.032H31.1902C30.9902 33.64 30.6262 34.14 30.0982 34.532C29.5782 34.916 28.9302 35.108 28.1542 35.108C27.5222 35.108 26.9542 34.968 26.4502 34.688C25.9542 34.4 25.5622 34 25.2742 33.488C24.9942 32.968 24.8542 32.368 24.8542 31.688C24.8542 31.008 24.9902 30.412 25.2622 29.9C25.5422 29.38 25.9302 28.98 26.4262 28.7C26.9302 28.42 27.5062 28.28 28.1542 28.28C28.7782 28.28 29.3342 28.416 29.8222 28.688C30.3102 28.96 30.6902 29.344 30.9622 29.84C31.2342 30.328 31.3702 30.892 31.3702 31.532ZM29.9422 31.1C29.9342 30.596 29.7542 30.192 29.4022 29.888C29.0502 29.584 28.6142 29.432 28.0942 29.432C27.6222 29.432 27.2182 29.584 26.8822 29.888C26.5462 30.184 26.3462 30.588 26.2822 31.1H29.9422Z" fill="white"/>
<defs>
<clipPath id="clip0_280_12442">
<rect width="18" height="20" fill="white" transform="translate(7)"/>
</clipPath>
</defs>
</svg>
