<svg width="20" height="20" viewBox="0 0 20 20" fill="none" xmlns="http://www.w3.org/2000/svg">
<path fill-rule="evenodd" clip-rule="evenodd" d="M10.0251 0.00626628C10.4227 0.0332948 10.8092 0.15472 11.1522 0.360758L13.9022 2.01058C14.2742 2.23415 14.5823 2.55061 14.7965 2.92814C15.0105 3.30565 15.124 3.73219 15.125 4.16618V7.78361L18.4855 9.80225C18.8575 10.0258 19.1656 10.3414 19.3798 10.7189C19.5939 11.0964 19.7073 11.523 19.7083 11.957V14.9307C19.7073 15.3647 19.5939 15.7913 19.3798 16.1688C19.1924 16.499 18.9335 16.7824 18.6225 16.9977L18.4855 17.0854L15.7355 18.7362L15.7346 18.7353C15.3689 18.9549 14.9541 19.0769 14.5288 19.0924C14.4989 19.0964 14.4685 19.0996 14.4375 19.0996C14.4062 19.0996 14.3755 19.0965 14.3453 19.0924C13.92 19.0768 13.5052 18.955 13.1395 18.7353L9.85417 16.7659L6.56885 18.7362L6.56795 18.7353C6.20219 18.9549 5.78745 19.0769 5.36214 19.0924C5.33222 19.0964 5.30184 19.0996 5.27083 19.0996C5.23952 19.0996 5.20883 19.0965 5.17863 19.0924C4.75335 19.0768 4.33848 18.955 3.97282 18.7353L1.22282 17.0854C0.850782 16.8619 0.542721 16.5463 0.328532 16.1688C0.1144 15.7913 0.00101832 15.3647 0 14.9307V11.957L0.00537109 11.7949C0.0305809 11.4173 0.141118 11.0493 0.328532 10.7189C0.542722 10.3414 0.850783 10.0258 1.22282 9.80225L4.58333 7.78361V4.16618L4.5887 4.00415C4.61386 3.62654 4.72451 3.25855 4.91187 2.92814C5.12602 2.55061 5.43411 2.23415 5.80615 2.01058L8.55615 0.360758L8.70565 0.277507C9.0604 0.0959541 9.45403 0 9.85417 0L10.0251 0.00626628ZM15.125 14.0624V17.499L17.7783 15.9065C17.9471 15.8049 18.0866 15.6615 18.1838 15.4902C18.2809 15.3191 18.3326 15.1257 18.3333 14.929V12.1333L15.125 14.0624ZM1.375 14.9272L1.38485 15.074C1.40401 15.2199 1.45141 15.3614 1.5245 15.4902C1.62171 15.6615 1.76126 15.8049 1.93001 15.9065L4.58333 17.4981V14.0624L1.375 12.1333V14.9272ZM5.95833 14.0624V17.4981L9.16667 15.5744V12.1369L5.95833 14.0624ZM10.5417 15.5744L13.75 17.4981V14.0624L10.5417 12.1369V15.5744ZM2.02759 10.9212L5.27083 12.87L8.51587 10.9221L5.26904 8.9742L2.02759 10.9212ZM11.1916 10.9221L14.4375 12.87L17.6798 10.9212L14.4375 8.9742L11.1916 10.9221ZM5.95833 7.78271L9.16667 9.70825V6.27075L5.95833 4.34163V7.78271ZM10.5417 6.27075V9.70825L13.75 7.78271V4.34163L10.5417 6.27075ZM9.85417 1.3759C9.64628 1.3759 9.44244 1.43266 9.26424 1.53971L6.61092 3.12956L9.85327 5.07837L13.0956 3.12956L10.445 1.53971C10.2668 1.43266 10.0621 1.3759 9.85417 1.3759Z" fill="white"/>
</svg>
